{
	"asset":{
		"generator":"Khronos glTF Blender I/O v4.0.44",
		"version":"2.0"
	},
	"scene":0,
	"scenes":[
		{
			"name":"Scene",
			"nodes":[
				0,
				1,
				2,
				3,
				4,
				5,
				6,
				7,
				8,
				9,
				10,
				11,
				12
			]
		}
	],
	"nodes":[
		{
			"mesh":0,
			"name":"Cylinder",
			"rotation":[
				0,
				0,
				-0.7071068286895752,
				0.7071068286895752
			],
			"scale":[
				1.0011640787124634,
				3.321096181869507,
				1.0011640787124634
			],
			"translation":[
				0,
				1.320120930671692,
				0
			]
		},
		{
			"mesh":1,
			"name":"Cylinder.001",
			"rotation":[
				0,
				0,
				-0.7071068286895752,
				0.7071068286895752
			],
			"scale":[
				1.0011640787124634,
				3.321096181869507,
				1.0011640787124634
			],
			"translation":[
				0,
				2.716745138168335,
				0
			]
		},
		{
			"mesh":2,
			"name":"Cylinder.002",
			"rotation":[
				0,
				0,
				-0.8021003007888794,
				0.5971893668174744
			],
			"scale":[
				1.0011640787124634,
				3.321096181869507,
				1.0011640787124634
			],
			"translation":[
				-2.5674378871917725,
				3.442613363265991,
				0
			]
		},
		{
			"mesh":3,
			"name":"Cylinder.003",
			"rotation":[
				0,
				0,
				0.9788524508476257,
				0.20456749200820923
			],
			"scale":[
				1.0011640787124634,
				3.321096181869507,
				1.0011640787124634
			],
			"translation":[
				2.102918863296509,
				3.442613363265991,
				0
			]
		},
		{
			"mesh":4,
			"name":"Cylinder.004",
			"rotation":[
				0.5902013778686523,
				0.3894385099411011,
				-0.5902013182640076,
				0.38943853974342346
			],
			"scale":[
				1.0709749460220337,
				1.0709749460220337,
				1.0709749460220337
			],
			"translation":[
				-2.092015266418457,
				0.8624829649925232,
				0
			]
		},
		{
			"mesh":5,
			"name":"Cylinder.005",
			"rotation":[
				0.5,
				0.5,
				-0.4999999403953552,
				0.5000000596046448
			],
			"scale":[
				1.0709749460220337,
				1.0709749460220337,
				1.0709749460220337
			],
			"translation":[
				0,
				0.8624829649925232,
				0
			]
		},
		{
			"mesh":6,
			"name":"Cylinder.006",
			"rotation":[
				0.5,
				0.5,
				-0.4999999403953552,
				0.5000000596046448
			],
			"scale":[
				1.0709749460220337,
				1.0709749460220337,
				1.0709749460220337
			],
			"translation":[
				0,
				0.8624829649925232,
				0
			]
		},
		{
			"mesh":7,
			"name":"Cylinder.007",
			"rotation":[
				0.22234134376049042,
				0.6712408661842346,
				-0.22234126925468445,
				0.6712409257888794
			],
			"scale":[
				1.0709749460220337,
				1.0709749460220337,
				1.0709749460220337
			],
			"translation":[
				7.103030204772949,
				3.4935226440429688,
				0.3818364441394806
			]
		},
		{
			"mesh":8,
			"name":"Cylinder.008",
			"rotation":[
				0.5902013778686523,
				0.3894385099411011,
				-0.5902013182640076,
				0.38943853974342346
			],
			"scale":[
				1.0709749460220337,
				1.0709749460220337,
				1.0709749460220337
			],
			"translation":[
				-2.092015266418457,
				0.8624829649925232,
				0
			]
		},
		{
			"mesh":9,
			"name":"Sphere",
			"rotation":[
				0.5902013778686523,
				0.3894385099411011,
				-0.5902013182640076,
				0.38943853974342346
			],
			"scale":[
				1.0709749460220337,
				1.0709749460220337,
				1.0709749460220337
			],
			"translation":[
				-2.092015266418457,
				0.8624829649925232,
				0
			]
		},
		{
			"mesh":10,
			"name":"Torus",
			"rotation":[
				0.5,
				0.5,
				-0.4999999403953552,
				0.5000000596046448
			],
			"scale":[
				1.0709749460220337,
				1.0709749460220337,
				1.0709749460220337
			],
			"translation":[
				0,
				0.8624829649925232,
				0
			]
		},
		{
			"mesh":11,
			"name":"Torus.001",
			"rotation":[
				0.5,
				0.5,
				-0.4999999403953552,
				0.5000000596046448
			],
			"scale":[
				1.0709749460220337,
				1.0709749460220337,
				1.0709749460220337
			],
			"translation":[
				0,
				0.8624829649925232,
				0
			]
		},
		{
			"mesh":12,
			"name":"Cylinder.009",
			"rotation":[
				-0.010007490403950214,
				0.6754179000854492,
				0.7365612983703613,
				0.03446890041232109
			],
			"scale":[
				0.2719725966453552,
				2.4441752433776855,
				0.27454036474227905
			],
			"translation":[
				3.2888243198394775,
				6.021189212799072,
				0
			]
		}
	],
	"materials":[
		{
			"doubleSided":true,
			"name":"Material.001",
			"normalTexture":{
				"index":0
			},
			"pbrMetallicRoughness":{
				"baseColorTexture":{
					"index":1
				},
				"metallicFactor":0,
				"roughnessFactor":0.5
			}
		},
		{
			"doubleSided":true,
			"name":"Material",
			"pbrMetallicRoughness":{
				"baseColorFactor":[
					0,
					0.021542957052588463,
					0.8003629446029663,
					1
				],
				"metallicFactor":0,
				"roughnessFactor":0.5
			}
		}
	],
	"meshes":[
		{
			"name":"Cylinder",
			"primitives":[
				{
					"attributes":{
						"POSITION":0,
						"NORMAL":1,
						"TEXCOORD_0":2
					},
					"indices":3
				}
			]
		},
		{
			"name":"Cylinder.001",
			"primitives":[
				{
					"attributes":{
						"POSITION":4,
						"NORMAL":5,
						"TEXCOORD_0":6
					},
					"indices":3
				}
			]
		},
		{
			"name":"Cylinder.002",
			"primitives":[
				{
					"attributes":{
						"POSITION":7,
						"NORMAL":8,
						"TEXCOORD_0":9
					},
					"indices":3,
					"material":0
				}
			]
		},
		{
			"name":"Cylinder.003",
			"primitives":[
				{
					"attributes":{
						"POSITION":10,
						"NORMAL":11,
						"TEXCOORD_0":12
					},
					"indices":3,
					"material":1
				}
			]
		},
		{
			"name":"Cylinder.004",
			"primitives":[
				{
					"attributes":{
						"POSITION":13,
						"NORMAL":14,
						"TEXCOORD_0":15
					},
					"indices":3
				}
			]
		},
		{
			"name":"Cylinder.005",
			"primitives":[
				{
					"attributes":{
						"POSITION":16,
						"NORMAL":17,
						"TEXCOORD_0":18
					},
					"indices":3
				}
			]
		},
		{
			"name":"Cylinder.006",
			"primitives":[
				{
					"attributes":{
						"POSITION":19,
						"NORMAL":20,
						"TEXCOORD_0":21
					},
					"indices":3
				}
			]
		},
		{
			"name":"Cylinder.007",
			"primitives":[
				{
					"attributes":{
						"POSITION":22,
						"NORMAL":23,
						"TEXCOORD_0":24
					},
					"indices":25
				}
			]
		},
		{
			"name":"Cylinder.008",
			"primitives":[
				{
					"attributes":{
						"POSITION":26,
						"NORMAL":27,
						"TEXCOORD_0":28
					},
					"indices":29
				}
			]
		},
		{
			"name":"Sphere",
			"primitives":[
				{
					"attributes":{
						"POSITION":30,
						"NORMAL":31,
						"TEXCOORD_0":32,
						"TANGENT":33
					},
					"indices":34
				}
			]
		},
		{
			"name":"Torus",
			"primitives":[
				{
					"attributes":{
						"POSITION":35,
						"NORMAL":36,
						"TEXCOORD_0":37,
						"TANGENT":38
					},
					"indices":39
				}
			]
		},
		{
			"name":"Torus.001",
			"primitives":[
				{
					"attributes":{
						"POSITION":40,
						"NORMAL":41,
						"TEXCOORD_0":42,
						"TANGENT":43
					},
					"indices":44
				}
			]
		},
		{
			"name":"Cylinder.009",
			"primitives":[
				{
					"attributes":{
						"POSITION":45,
						"NORMAL":46,
						"TEXCOORD_0":47
					},
					"indices":48
				}
			]
		}
	],
	"textures":[
		{
			"sampler":0,
			"source":0
		},
		{
			"sampler":0,
			"source":1
		}
	],
	"images":[
		{
			"mimeType":"image/jpeg",
			"name":"PaintedMetal016_4K-JPG_NormalGL.jpg",
			"uri":"../../../../../../Downloads/PaintedMetal016_4K-JPG/PaintedMetal016_4K-JPG_NormalGL.jpg"
		},
		{
			"mimeType":"image/jpeg",
			"name":"PaintedMetal016_4K-JPG_Color.jpg",
			"uri":"../../../../../../Downloads/PaintedMetal016_4K-JPG/PaintedMetal016_4K-JPG_Color.jpg"
		}
	],
	"accessors":[
		{
			"bufferView":0,
			"componentType":5126,
			"count":192,
			"max":[
				1,
				1,
				1
			],
			"min":[
				-1,
				-1,
				-1
			],
			"type":"VEC3"
		},
		{
			"bufferView":1,
			"componentType":5126,
			"count":192,
			"type":"VEC3"
		},
		{
			"bufferView":2,
			"componentType":5126,
			"count":192,
			"type":"VEC2"
		},
		{
			"bufferView":3,
			"componentType":5123,
			"count":372,
			"type":"SCALAR"
		},
		{
			"bufferView":4,
			"componentType":5126,
			"count":192,
			"max":[
				1,
				1,
				1
			],
			"min":[
				-1,
				-1,
				-1
			],
			"type":"VEC3"
		},
		{
			"bufferView":5,
			"componentType":5126,
			"count":192,
			"type":"VEC3"
		},
		{
			"bufferView":6,
			"componentType":5126,
			"count":192,
			"type":"VEC2"
		},
		{
			"bufferView":7,
			"componentType":5126,
			"count":192,
			"max":[
				1,
				1,
				1
			],
			"min":[
				-1,
				-1,
				-1
			],
			"type":"VEC3"
		},
		{
			"bufferView":8,
			"componentType":5126,
			"count":192,
			"type":"VEC3"
		},
		{
			"bufferView":9,
			"componentType":5126,
			"count":192,
			"type":"VEC2"
		},
		{
			"bufferView":10,
			"componentType":5126,
			"count":192,
			"max":[
				1,
				1,
				1
			],
			"min":[
				-1,
				-1,
				-1
			],
			"type":"VEC3"
		},
		{
			"bufferView":11,
			"componentType":5126,
			"count":192,
			"type":"VEC3"
		},
		{
			"bufferView":12,
			"componentType":5126,
			"count":192,
			"type":"VEC2"
		},
		{
			"bufferView":13,
			"componentType":5126,
			"count":192,
			"max":[
				1.556676983833313,
				1,
				-3.0805840492248535
			],
			"min":[
				-1.556676983833313,
				-1,
				-6.764770030975342
			],
			"type":"VEC3"
		},
		{
			"bufferView":14,
			"componentType":5126,
			"count":192,
			"type":"VEC3"
		},
		{
			"bufferView":15,
			"componentType":5126,
			"count":192,
			"type":"VEC2"
		},
		{
			"bufferView":16,
			"componentType":5126,
			"count":192,
			"max":[
				1.0857479572296143,
				0.2035599946975708,
				-0.4580720067024231
			],
			"min":[
				0.6786289811134338,
				-0.2035599946975708,
				-3.5357000827789307
			],
			"type":"VEC3"
		},
		{
			"bufferView":17,
			"componentType":5126,
			"count":192,
			"type":"VEC3"
		},
		{
			"bufferView":18,
			"componentType":5126,
			"count":192,
			"type":"VEC2"
		},
		{
			"bufferView":19,
			"componentType":5126,
			"count":192,
			"max":[
				-0.6788190007209778,
				0.2035599946975708,
				-0.4580720067024231
			],
			"min":[
				-1.0859379768371582,
				-0.2035599946975708,
				-3.5357000827789307
			],
			"type":"VEC3"
		},
		{
			"bufferView":20,
			"componentType":5126,
			"count":192,
			"type":"VEC3"
		},
		{
			"bufferView":21,
			"componentType":5126,
			"count":192,
			"type":"VEC2"
		},
		{
			"bufferView":22,
			"componentType":5126,
			"count":192,
			"max":[
				2.299056053161621,
				0.777209997177124,
				-3.708893060684204
			],
			"min":[
				1.2785849571228027,
				-0.777209997177124,
				-6.658895015716553
			],
			"type":"VEC3"
		},
		{
			"bufferView":23,
			"componentType":5126,
			"count":192,
			"type":"VEC3"
		},
		{
			"bufferView":24,
			"componentType":5126,
			"count":192,
			"type":"VEC2"
		},
		{
			"bufferView":25,
			"componentType":5123,
			"count":372,
			"type":"SCALAR"
		},
		{
			"bufferView":26,
			"componentType":5126,
			"count":192,
			"max":[
				-0.9139760136604309,
				2.9024391174316406,
				-6.141087055206299
			],
			"min":[
				-1.9167579412460327,
				-0.19466599822044373,
				-6.615417003631592
			],
			"type":"VEC3"
		},
		{
			"bufferView":27,
			"componentType":5126,
			"count":192,
			"type":"VEC3"
		},
		{
			"bufferView":28,
			"componentType":5126,
			"count":192,
			"type":"VEC2"
		},
		{
			"bufferView":29,
			"componentType":5123,
			"count":372,
			"type":"SCALAR"
		},
		{
			"bufferView":30,
			"componentType":5126,
			"count":1984,
			"max":[
				0.600176990032196,
				0.600176990032196,
				-6.636776924133301
			],
			"min":[
				-0.6001759767532349,
				-0.600176990032196,
				-8.100141525268555
			],
			"type":"VEC3"
		},
		{
			"bufferView":31,
			"componentType":5126,
			"count":1984,
			"type":"VEC3"
		},
		{
			"bufferView":32,
			"componentType":5126,
			"count":1984,
			"type":"VEC2"
		},
		{
			"bufferView":33,
			"componentType":5126,
			"count":1984,
			"type":"VEC4"
		},
		{
			"bufferView":34,
			"componentType":5123,
			"count":2880,
			"type":"SCALAR"
		},
		{
			"bufferView":35,
			"componentType":5126,
			"count":2304,
			"max":[
				-0.7306389808654785,
				1.3450980186462402,
				-0.4425170123577118
			],
			"min":[
				-1.305482029914856,
				-0.43299299478530884,
				-0.5574849843978882
			],
			"type":"VEC3"
		},
		{
			"bufferView":36,
			"componentType":5126,
			"count":2304,
			"type":"VEC3"
		},
		{
			"bufferView":37,
			"componentType":5126,
			"count":2304,
			"type":"VEC2"
		},
		{
			"bufferView":38,
			"componentType":5126,
			"count":2304,
			"type":"VEC4"
		},
		{
			"bufferView":39,
			"componentType":5123,
			"count":3456,
			"type":"SCALAR"
		},
		{
			"bufferView":40,
			"componentType":5126,
			"count":2304,
			"max":[
				1.2427589893341064,
				1.3450980186462402,
				-0.4425170123577118
			],
			"min":[
				0.6679159998893738,
				-0.43299299478530884,
				-0.5574849843978882
			],
			"type":"VEC3"
		},
		{
			"bufferView":41,
			"componentType":5126,
			"count":2304,
			"type":"VEC3"
		},
		{
			"bufferView":42,
			"componentType":5126,
			"count":2304,
			"type":"VEC2"
		},
		{
			"bufferView":43,
			"componentType":5126,
			"count":2304,
			"type":"VEC4"
		},
		{
			"bufferView":44,
			"componentType":5123,
			"count":3456,
			"type":"SCALAR"
		},
		{
			"bufferView":45,
			"componentType":5126,
			"count":130,
			"max":[
				1,
				1,
				1
			],
			"min":[
				-1,
				-1,
				-1
			],
			"type":"VEC3"
		},
		{
			"bufferView":46,
			"componentType":5126,
			"count":130,
			"type":"VEC3"
		},
		{
			"bufferView":47,
			"componentType":5126,
			"count":130,
			"type":"VEC2"
		},
		{
			"bufferView":48,
			"componentType":5123,
			"count":372,
			"type":"SCALAR"
		}
	],
	"bufferViews":[
		{
			"buffer":0,
			"byteLength":2304,
			"byteOffset":0,
			"target":34962
		},
		{
			"buffer":0,
			"byteLength":2304,
			"byteOffset":2304,
			"target":34962
		},
		{
			"buffer":0,
			"byteLength":1536,
			"byteOffset":4608,
			"target":34962
		},
		{
			"buffer":0,
			"byteLength":744,
			"byteOffset":6144,
			"target":34963
		},
		{
			"buffer":0,
			"byteLength":2304,
			"byteOffset":6888,
			"target":34962
		},
		{
			"buffer":0,
			"byteLength":2304,
			"byteOffset":9192,
			"target":34962
		},
		{
			"buffer":0,
			"byteLength":1536,
			"byteOffset":11496,
			"target":34962
		},
		{
			"buffer":0,
			"byteLength":2304,
			"byteOffset":13032,
			"target":34962
		},
		{
			"buffer":0,
			"byteLength":2304,
			"byteOffset":15336,
			"target":34962
		},
		{
			"buffer":0,
			"byteLength":1536,
			"byteOffset":17640,
			"target":34962
		},
		{
			"buffer":0,
			"byteLength":2304,
			"byteOffset":19176,
			"target":34962
		},
		{
			"buffer":0,
			"byteLength":2304,
			"byteOffset":21480,
			"target":34962
		},
		{
			"buffer":0,
			"byteLength":1536,
			"byteOffset":23784,
			"target":34962
		},
		{
			"buffer":0,
			"byteLength":2304,
			"byteOffset":25320,
			"target":34962
		},
		{
			"buffer":0,
			"byteLength":2304,
			"byteOffset":27624,
			"target":34962
		},
		{
			"buffer":0,
			"byteLength":1536,
			"byteOffset":29928,
			"target":34962
		},
		{
			"buffer":0,
			"byteLength":2304,
			"byteOffset":31464,
			"target":34962
		},
		{
			"buffer":0,
			"byteLength":2304,
			"byteOffset":33768,
			"target":34962
		},
		{
			"buffer":0,
			"byteLength":1536,
			"byteOffset":36072,
			"target":34962
		},
		{
			"buffer":0,
			"byteLength":2304,
			"byteOffset":37608,
			"target":34962
		},
		{
			"buffer":0,
			"byteLength":2304,
			"byteOffset":39912,
			"target":34962
		},
		{
			"buffer":0,
			"byteLength":1536,
			"byteOffset":42216,
			"target":34962
		},
		{
			"buffer":0,
			"byteLength":2304,
			"byteOffset":43752,
			"target":34962
		},
		{
			"buffer":0,
			"byteLength":2304,
			"byteOffset":46056,
			"target":34962
		},
		{
			"buffer":0,
			"byteLength":1536,
			"byteOffset":48360,
			"target":34962
		},
		{
			"buffer":0,
			"byteLength":744,
			"byteOffset":49896,
			"target":34963
		},
		{
			"buffer":0,
			"byteLength":2304,
			"byteOffset":50640,
			"target":34962
		},
		{
			"buffer":0,
			"byteLength":2304,
			"byteOffset":52944,
			"target":34962
		},
		{
			"buffer":0,
			"byteLength":1536,
			"byteOffset":55248,
			"target":34962
		},
		{
			"buffer":0,
			"byteLength":744,
			"byteOffset":56784,
			"target":34963
		},
		{
			"buffer":0,
			"byteLength":23808,
			"byteOffset":57528,
			"target":34962
		},
		{
			"buffer":0,
			"byteLength":23808,
			"byteOffset":81336,
			"target":34962
		},
		{
			"buffer":0,
			"byteLength":15872,
			"byteOffset":105144,
			"target":34962
		},
		{
			"buffer":0,
			"byteLength":31744,
			"byteOffset":121016,
			"target":34962
		},
		{
			"buffer":0,
			"byteLength":5760,
			"byteOffset":152760,
			"target":34963
		},
		{
			"buffer":0,
			"byteLength":27648,
			"byteOffset":158520,
			"target":34962
		},
		{
			"buffer":0,
			"byteLength":27648,
			"byteOffset":186168,
			"target":34962
		},
		{
			"buffer":0,
			"byteLength":18432,
			"byteOffset":213816,
			"target":34962
		},
		{
			"buffer":0,
			"byteLength":36864,
			"byteOffset":232248,
			"target":34962
		},
		{
			"buffer":0,
			"byteLength":6912,
			"byteOffset":269112,
			"target":34963
		},
		{
			"buffer":0,
			"byteLength":27648,
			"byteOffset":276024,
			"target":34962
		},
		{
			"buffer":0,
			"byteLength":27648,
			"byteOffset":303672,
			"target":34962
		},
		{
			"buffer":0,
			"byteLength":18432,
			"byteOffset":331320,
			"target":34962
		},
		{
			"buffer":0,
			"byteLength":36864,
			"byteOffset":349752,
			"target":34962
		},
		{
			"buffer":0,
			"byteLength":6912,
			"byteOffset":386616,
			"target":34963
		},
		{
			"buffer":0,
			"byteLength":1560,
			"byteOffset":393528,
			"target":34962
		},
		{
			"buffer":0,
			"byteLength":1560,
			"byteOffset":395088,
			"target":34962
		},
		{
			"buffer":0,
			"byteLength":1040,
			"byteOffset":396648,
			"target":34962
		},
		{
			"buffer":0,
			"byteLength":744,
			"byteOffset":397688,
			"target":34963
		}
	],
	"samplers":[
		{
			"magFilter":9729,
			"minFilter":9987
		}
	],
	"buffers":[
		{
			"byteLength":398432,
			"uri":"biker-730f308dba392e08851a5152a68da8cb.bin"
		}
	]
}
