{
	"asset":{
		"generator":"Khronos glTF Blender I/O v4.0.44",
		"version":"2.0"
	},
	"scene":0,
	"scenes":[
		{
			"name":"Scene",
			"nodes":[
				0,
				1,
				2,
				3,
				4,
				5,
				6,
				7
			]
		}
	],
	"nodes":[
		{
			"mesh":0,
			"name":"Cylinder",
			"scale":[
				1.5566771030426025,
				1.8420929908752441,
				1
			],
			"translation":[
				0,
				4.922677040100098,
				0
			]
		},
		{
			"mesh":1,
			"name":"Sphere",
			"scale":[
				0.6001769304275513,
				0.7316820621490479,
				0.6001769304275513
			],
			"translation":[
				0,
				7.368459224700928,
				0
			]
		},
		{
			"mesh":2,
			"name":"Cylinder.001",
			"scale":[
				0.20355963706970215,
				1.5388139486312866,
				0.20355963706970215
			],
			"translation":[
				0.8821883797645569,
				1.9968860149383545,
				0
			]
		},
		{
			"mesh":3,
			"name":"Cylinder.002",
			"scale":[
				0.20355963706970215,
				1.5388139486312866,
				0.20355963706970215
			],
			"translation":[
				-0.8823784589767456,
				1.9968860149383545,
				0
			]
		},
		{
			"mesh":4,
			"name":"Cylinder.003",
			"rotation":[
				-0.19399704039096832,
				-0.021525263786315918,
				0.10815875232219696,
				0.9747838377952576
			],
			"scale":[
				0.20355963706970215,
				1.5388139486312866,
				0.20355963706970215
			],
			"translation":[
				1.7888201475143433,
				5.183894157409668,
				0
			]
		},
		{
			"mesh":5,
			"name":"Cylinder.004",
			"rotation":[
				-0.6628916263580322,
				-0.3837938904762268,
				0.26743191480636597,
				0.5845999717712402
			],
			"scale":[
				0.20355963706970215,
				1.538813829421997,
				0.20355963706970215
			],
			"translation":[
				-1.4153668880462646,
				6.378252029418945,
				1.3538862466812134
			]
		},
		{
			"mesh":6,
			"name":"Torus",
			"scale":[
				0.22993698716163635,
				0.22993698716163635,
				0.7112364172935486
			],
			"translation":[
				-1.0180606842041016,
				0.5000010132789612,
				0.456052303314209
			]
		},
		{
			"mesh":7,
			"name":"Torus.001",
			"scale":[
				0.22993698716163635,
				0.22993698716163635,
				0.7112364172935486
			],
			"translation":[
				0.9553375840187073,
				0.5000010132789612,
				0.456052303314209
			]
		}
	],
	"meshes":[
		{
			"name":"Cylinder",
			"primitives":[
				{
					"attributes":{
						"POSITION":0,
						"NORMAL":1,
						"TEXCOORD_0":2
					},
					"indices":3
				}
			]
		},
		{
			"name":"Sphere",
			"primitives":[
				{
					"attributes":{
						"POSITION":4,
						"NORMAL":5,
						"TEXCOORD_0":6,
						"TANGENT":7
					},
					"indices":8
				}
			]
		},
		{
			"name":"Cylinder.001",
			"primitives":[
				{
					"attributes":{
						"POSITION":9,
						"NORMAL":10,
						"TEXCOORD_0":11
					},
					"indices":3
				}
			]
		},
		{
			"name":"Cylinder.002",
			"primitives":[
				{
					"attributes":{
						"POSITION":12,
						"NORMAL":13,
						"TEXCOORD_0":14
					},
					"indices":3
				}
			]
		},
		{
			"name":"Cylinder.003",
			"primitives":[
				{
					"attributes":{
						"POSITION":15,
						"NORMAL":16,
						"TEXCOORD_0":17
					},
					"indices":3
				}
			]
		},
		{
			"name":"Cylinder.004",
			"primitives":[
				{
					"attributes":{
						"POSITION":18,
						"NORMAL":19,
						"TEXCOORD_0":20
					},
					"indices":3
				}
			]
		},
		{
			"name":"Torus",
			"primitives":[
				{
					"attributes":{
						"POSITION":21,
						"NORMAL":22,
						"TEXCOORD_0":23,
						"TANGENT":24
					},
					"indices":25
				}
			]
		},
		{
			"name":"Torus.001",
			"primitives":[
				{
					"attributes":{
						"POSITION":26,
						"NORMAL":27,
						"TEXCOORD_0":28,
						"TANGENT":29
					},
					"indices":25
				}
			]
		}
	],
	"accessors":[
		{
			"bufferView":0,
			"componentType":5126,
			"count":192,
			"max":[
				1,
				1,
				1
			],
			"min":[
				-1,
				-1,
				-1
			],
			"type":"VEC3"
		},
		{
			"bufferView":1,
			"componentType":5126,
			"count":192,
			"type":"VEC3"
		},
		{
			"bufferView":2,
			"componentType":5126,
			"count":192,
			"type":"VEC2"
		},
		{
			"bufferView":3,
			"componentType":5123,
			"count":372,
			"type":"SCALAR"
		},
		{
			"bufferView":4,
			"componentType":5126,
			"count":1984,
			"max":[
				0.9999997019767761,
				1,
				0.9999993443489075
			],
			"min":[
				-0.9999990463256836,
				-1,
				-1
			],
			"type":"VEC3"
		},
		{
			"bufferView":5,
			"componentType":5126,
			"count":1984,
			"type":"VEC3"
		},
		{
			"bufferView":6,
			"componentType":5126,
			"count":1984,
			"type":"VEC2"
		},
		{
			"bufferView":7,
			"componentType":5126,
			"count":1984,
			"type":"VEC4"
		},
		{
			"bufferView":8,
			"componentType":5123,
			"count":2880,
			"type":"SCALAR"
		},
		{
			"bufferView":9,
			"componentType":5126,
			"count":192,
			"max":[
				1,
				1,
				1
			],
			"min":[
				-1,
				-1,
				-1
			],
			"type":"VEC3"
		},
		{
			"bufferView":10,
			"componentType":5126,
			"count":192,
			"type":"VEC3"
		},
		{
			"bufferView":11,
			"componentType":5126,
			"count":192,
			"type":"VEC2"
		},
		{
			"bufferView":12,
			"componentType":5126,
			"count":192,
			"max":[
				1,
				1,
				1
			],
			"min":[
				-1,
				-1,
				-1
			],
			"type":"VEC3"
		},
		{
			"bufferView":13,
			"componentType":5126,
			"count":192,
			"type":"VEC3"
		},
		{
			"bufferView":14,
			"componentType":5126,
			"count":192,
			"type":"VEC2"
		},
		{
			"bufferView":15,
			"componentType":5126,
			"count":192,
			"max":[
				1,
				1,
				1
			],
			"min":[
				-1,
				-1,
				-1
			],
			"type":"VEC3"
		},
		{
			"bufferView":16,
			"componentType":5126,
			"count":192,
			"type":"VEC3"
		},
		{
			"bufferView":17,
			"componentType":5126,
			"count":192,
			"type":"VEC2"
		},
		{
			"bufferView":18,
			"componentType":5126,
			"count":192,
			"max":[
				1,
				1,
				1
			],
			"min":[
				-1,
				-1,
				-1
			],
			"type":"VEC3"
		},
		{
			"bufferView":19,
			"componentType":5126,
			"count":192,
			"type":"VEC3"
		},
		{
			"bufferView":20,
			"componentType":5126,
			"count":192,
			"type":"VEC2"
		},
		{
			"bufferView":21,
			"componentType":5126,
			"count":2304,
			"max":[
				1.25,
				0.25,
				1.25
			],
			"min":[
				-1.25,
				-0.25,
				-1.25
			],
			"type":"VEC3"
		},
		{
			"bufferView":22,
			"componentType":5126,
			"count":2304,
			"type":"VEC3"
		},
		{
			"bufferView":23,
			"componentType":5126,
			"count":2304,
			"type":"VEC2"
		},
		{
			"bufferView":24,
			"componentType":5126,
			"count":2304,
			"type":"VEC4"
		},
		{
			"bufferView":25,
			"componentType":5123,
			"count":3456,
			"type":"SCALAR"
		},
		{
			"bufferView":26,
			"componentType":5126,
			"count":2304,
			"max":[
				1.25,
				0.25,
				1.25
			],
			"min":[
				-1.25,
				-0.25,
				-1.25
			],
			"type":"VEC3"
		},
		{
			"bufferView":27,
			"componentType":5126,
			"count":2304,
			"type":"VEC3"
		},
		{
			"bufferView":28,
			"componentType":5126,
			"count":2304,
			"type":"VEC2"
		},
		{
			"bufferView":29,
			"componentType":5126,
			"count":2304,
			"type":"VEC4"
		}
	],
	"bufferViews":[
		{
			"buffer":0,
			"byteLength":2304,
			"byteOffset":0,
			"target":34962
		},
		{
			"buffer":0,
			"byteLength":2304,
			"byteOffset":2304,
			"target":34962
		},
		{
			"buffer":0,
			"byteLength":1536,
			"byteOffset":4608,
			"target":34962
		},
		{
			"buffer":0,
			"byteLength":744,
			"byteOffset":6144,
			"target":34963
		},
		{
			"buffer":0,
			"byteLength":23808,
			"byteOffset":6888,
			"target":34962
		},
		{
			"buffer":0,
			"byteLength":23808,
			"byteOffset":30696,
			"target":34962
		},
		{
			"buffer":0,
			"byteLength":15872,
			"byteOffset":54504,
			"target":34962
		},
		{
			"buffer":0,
			"byteLength":31744,
			"byteOffset":70376,
			"target":34962
		},
		{
			"buffer":0,
			"byteLength":5760,
			"byteOffset":102120,
			"target":34963
		},
		{
			"buffer":0,
			"byteLength":2304,
			"byteOffset":107880,
			"target":34962
		},
		{
			"buffer":0,
			"byteLength":2304,
			"byteOffset":110184,
			"target":34962
		},
		{
			"buffer":0,
			"byteLength":1536,
			"byteOffset":112488,
			"target":34962
		},
		{
			"buffer":0,
			"byteLength":2304,
			"byteOffset":114024,
			"target":34962
		},
		{
			"buffer":0,
			"byteLength":2304,
			"byteOffset":116328,
			"target":34962
		},
		{
			"buffer":0,
			"byteLength":1536,
			"byteOffset":118632,
			"target":34962
		},
		{
			"buffer":0,
			"byteLength":2304,
			"byteOffset":120168,
			"target":34962
		},
		{
			"buffer":0,
			"byteLength":2304,
			"byteOffset":122472,
			"target":34962
		},
		{
			"buffer":0,
			"byteLength":1536,
			"byteOffset":124776,
			"target":34962
		},
		{
			"buffer":0,
			"byteLength":2304,
			"byteOffset":126312,
			"target":34962
		},
		{
			"buffer":0,
			"byteLength":2304,
			"byteOffset":128616,
			"target":34962
		},
		{
			"buffer":0,
			"byteLength":1536,
			"byteOffset":130920,
			"target":34962
		},
		{
			"buffer":0,
			"byteLength":27648,
			"byteOffset":132456,
			"target":34962
		},
		{
			"buffer":0,
			"byteLength":27648,
			"byteOffset":160104,
			"target":34962
		},
		{
			"buffer":0,
			"byteLength":18432,
			"byteOffset":187752,
			"target":34962
		},
		{
			"buffer":0,
			"byteLength":36864,
			"byteOffset":206184,
			"target":34962
		},
		{
			"buffer":0,
			"byteLength":6912,
			"byteOffset":243048,
			"target":34963
		},
		{
			"buffer":0,
			"byteLength":27648,
			"byteOffset":249960,
			"target":34962
		},
		{
			"buffer":0,
			"byteLength":27648,
			"byteOffset":277608,
			"target":34962
		},
		{
			"buffer":0,
			"byteLength":18432,
			"byteOffset":305256,
			"target":34962
		},
		{
			"buffer":0,
			"byteLength":36864,
			"byteOffset":323688,
			"target":34962
		}
	],
	"buffers":[
		{
			"byteLength":360552,
			"uri":"char1-6fb6ef4e816e7fff6eea6c5cc676a94b.bin"
		}
	]
}
