{
	"asset":{
		"generator":"Khronos glTF Blender I/O v4.0.44",
		"version":"2.0"
	},
	"scene":0,
	"scenes":[
		{
			"name":"Scene",
			"nodes":[
				0
			]
		}
	],
	"nodes":[
		{
			"mesh":0,
			"name":"Cube",
			"scale":[
				6.537172794342041,
				1,
				2.6440017223358154
			],
			"translation":[
				-0.3554210364818573,
				1.9325494766235352,
				0
			]
		}
	],
	"materials":[
		{
			"doubleSided":true,
			"name":"Material",
			"normalTexture":{
				"index":0
			},
			"pbrMetallicRoughness":{
				"baseColorTexture":{
					"index":1
				},
				"metallicFactor":0,
				"roughnessFactor":0.5
			}
		}
	],
	"meshes":[
		{
			"name":"Cube",
			"primitives":[
				{
					"attributes":{
						"POSITION":0,
						"NORMAL":1,
						"TEXCOORD_0":2
					},
					"indices":3,
					"material":0
				}
			]
		}
	],
	"textures":[
		{
			"sampler":0,
			"source":0
		},
		{
			"sampler":0,
			"source":1
		}
	],
	"images":[
		{
			"mimeType":"image/jpeg",
			"name":"PaintedMetal004_4K-JPG_NormalGL.jpg",
			"uri":"../../../../../../Downloads/PaintedMetal004_4K-JPG/PaintedMetal004_4K-JPG_NormalGL.jpg"
		},
		{
			"mimeType":"image/jpeg",
			"name":"PaintedMetal004_4K-JPG_Color.jpg",
			"uri":"../../../../../../Downloads/PaintedMetal004_4K-JPG/PaintedMetal004_4K-JPG_Color.jpg"
		}
	],
	"accessors":[
		{
			"bufferView":0,
			"componentType":5126,
			"count":216,
			"max":[
				1.1057226657867432,
				2.1993825435638428,
				1.1674197912216187
			],
			"min":[
				-1.0170379877090454,
				-1,
				-1.1674197912216187
			],
			"type":"VEC3"
		},
		{
			"bufferView":1,
			"componentType":5126,
			"count":216,
			"type":"VEC3"
		},
		{
			"bufferView":2,
			"componentType":5126,
			"count":216,
			"type":"VEC2"
		},
		{
			"bufferView":3,
			"componentType":5123,
			"count":366,
			"type":"SCALAR"
		}
	],
	"bufferViews":[
		{
			"buffer":0,
			"byteLength":2592,
			"byteOffset":0,
			"target":34962
		},
		{
			"buffer":0,
			"byteLength":2592,
			"byteOffset":2592,
			"target":34962
		},
		{
			"buffer":0,
			"byteLength":1728,
			"byteOffset":5184,
			"target":34962
		},
		{
			"buffer":0,
			"byteLength":732,
			"byteOffset":6912,
			"target":34963
		}
	],
	"samplers":[
		{
			"magFilter":9729,
			"minFilter":9987
		}
	],
	"buffers":[
		{
			"byteLength":7644,
			"uri":"hatchback-f4abb9018941ef1ba997f4789072003f.bin"
		}
	]
}
