{
	"asset":{
		"generator":"Khronos glTF Blender I/O v4.0.44",
		"version":"2.0"
	},
	"extensionsUsed":[
		"KHR_materials_emissive_strength"
	],
	"scene":0,
	"scenes":[
		{
			"name":"Scene",
			"nodes":[
				0,
				1
			]
		}
	],
	"nodes":[
		{
			"camera":0,
			"name":"Camera",
			"rotation":[
				-0.29854604601860046,
				0.050547633320093155,
				-0.012765669263899326,
				0.9529702663421631
			],
			"translation":[
				3.3095107078552246,
				5.054542541503906,
				6.24608039855957
			]
		},
		{
			"mesh":0,
			"name":"Text",
			"rotation":[
				0.4796532988548279,
				0,
				0,
				0.8774580955505371
			]
		}
	],
	"cameras":[
		{
			"name":"Camera",
			"perspective":{
				"aspectRatio":1.7777777777777777,
				"yfov":0.39959652046304894,
				"zfar":100,
				"znear":0.10000000149011612
			},
			"type":"perspective"
		}
	],
	"materials":[
		{
			"doubleSided":true,
			"emissiveFactor":[
				0,
				0.005154560320079327,
				1
			],
			"extensions":{
				"KHR_materials_emissive_strength":{
					"emissiveStrength":1561.699951171875
				}
			},
			"name":"Material.001",
			"pbrMetallicRoughness":{
				"baseColorFactor":[
					0,
					0,
					0,
					1
				]
			}
		}
	],
	"meshes":[
		{
			"name":"Text",
			"primitives":[
				{
					"attributes":{
						"POSITION":0,
						"NORMAL":1,
						"TEXCOORD_0":2,
						"TANGENT":3
					},
					"indices":4,
					"material":0
				}
			]
		}
	],
	"accessors":[
		{
			"bufferView":0,
			"componentType":5126,
			"count":3484,
			"max":[
				3.7320003509521484,
				0.07999999821186066,
				0.23000000417232513
			],
			"min":[
				0.07400000095367432,
				-0.07999999821186066,
				-0.6820000410079956
			],
			"type":"VEC3"
		},
		{
			"bufferView":1,
			"componentType":5126,
			"count":3484,
			"type":"VEC3"
		},
		{
			"bufferView":2,
			"componentType":5126,
			"count":3484,
			"type":"VEC2"
		},
		{
			"bufferView":3,
			"componentType":5126,
			"count":3484,
			"type":"VEC4"
		},
		{
			"bufferView":4,
			"componentType":5123,
			"count":10284,
			"type":"SCALAR"
		}
	],
	"bufferViews":[
		{
			"buffer":0,
			"byteLength":41808,
			"byteOffset":0,
			"target":34962
		},
		{
			"buffer":0,
			"byteLength":41808,
			"byteOffset":41808,
			"target":34962
		},
		{
			"buffer":0,
			"byteLength":27872,
			"byteOffset":83616,
			"target":34962
		},
		{
			"buffer":0,
			"byteLength":55744,
			"byteOffset":111488,
			"target":34962
		},
		{
			"buffer":0,
			"byteLength":20568,
			"byteOffset":167232,
			"target":34963
		}
	],
	"buffers":[
		{
			"byteLength":187800,
			"uri":"loading-a3f02c544043744da4e15d4d49bdf6bb.bin"
		}
	]
}
